<svg xmlns="http://www.w3.org/2000/svg" viewBox="0 0 200 200" xmlns:v="https://vecta.io/nano"><path d="M186.84 5H13.16C8.65 5 5 8.65 5 13.16v173.68c0 4.51 3.65 8.16 8.16 8.16h173.68c4.51 0 8.16-3.65 8.16-8.16V13.16c0-4.51-3.65-8.16-8.16-8.16zM79.6 120.4V79.6h41.96v40.8H79.6zm41.96 16.32v41.96H79.6v-41.96h41.96zM21.32 79.6h41.96v40.8H21.32V79.6zM79.6 63.28V21.32h41.96v41.96H79.6zm58.28 16.32h40.8v40.8h-40.8V79.6zm40.8-16.32h-40.8V21.32h40.8v41.96zM63.28 21.32v41.96H21.32V21.32h41.96zm-41.96 115.4h41.96v41.96H21.32v-41.96zm116.56 41.96v-41.96h40.8v41.96h-40.8z"/></svg>