<svg xmlns="http://www.w3.org/2000/svg" viewBox="0 0 200 200" xmlns:v="https://vecta.io/nano"><path d="m187.77,195c-.65,0-1.31-.09-1.95-.27l-40.42-11.28c-28.96,15.74-64.28,15.36-92.94-1.21-21.97-12.7-37.68-33.2-44.23-57.71-6.55-24.52-3.17-50.12,9.53-72.09C43.98,7.09,102.2-8.48,147.56,17.74c44.46,25.71,60.3,82.18,36.19,127.12l11.03,40.98c.68,2.52-.05,5.21-1.9,7.05-1.38,1.37-3.22,2.1-5.11,2.1ZM100.15,19.53c-27.82,0-54.91,14.42-69.81,40.18-10.76,18.61-13.63,40.3-8.07,61.06s18.86,38.13,37.47,48.89c25.04,14.48,56.09,14.37,81.04-.28,1.7-1,3.74-1.26,5.63-.73l31.04,8.66-8.49-31.52c-.5-1.87-.24-3.85.73-5.53,22.21-38.42,9.02-87.74-29.39-109.95-12.65-7.31-26.48-10.79-40.14-10.79Z"/></svg>