<?xml version="1.0" encoding="UTF-8"?>
<svg id="Camada_1" data-name="Camada 1" xmlns="http://www.w3.org/2000/svg" viewBox="0 0 200 200">
  <path d="m178.37,196c-1.99,0-3.95-.75-5.46-2.17l-72.91-68.81L27.09,193.83c-2.31,2.18-5.69,2.78-8.61,1.52-2.91-1.26-4.8-4.13-4.8-7.3V11.95c0-4.39,3.56-7.95,7.95-7.95h156.74c4.39,0,7.95,3.56,7.95,7.95v176.1c0,3.17-1.89,6.04-4.8,7.3-1.01.44-2.08.65-3.15.65Zm-78.37-89.86c1.96,0,3.93.72,5.46,2.17l64.96,61.31V19.9H29.58v149.71l64.96-61.31c1.53-1.45,3.49-2.17,5.46-2.17Z"/>
</svg>