<svg xmlns="http://www.w3.org/2000/svg" viewBox="0 0 200 200" xmlns:v="https://vecta.io/nano"><path d="M130.55 196H69.44c-26.62 0-38.83-6.53-48.96-16.32l-.18-.18c-9.79-10.12-16.31-22.32-16.31-48.94V69.44c0-26.61 6.52-38.82 16.3-48.95l.18-.18C30.62 10.52 42.83 4 69.45 4h61.11c26.6 0 38.81 6.52 48.96 16.31l.18.18c9.79 10.12 16.31 22.32 16.31 48.95v61.12c0 26.62-6.52 38.82-16.31 48.94l-.18.18c-10.14 9.8-22.35 16.32-48.96 16.32zm-99.72-26.85c6.36 6.13 14.63 12.09 38.61 12.09h61.11c23.96 0 32.24-5.96 38.61-12.09 6.12-6.35 12.07-14.61 12.07-38.58V69.45c0-23.98-5.95-32.24-12.07-38.59-6.37-6.13-14.65-12.08-38.61-12.08H69.44c-23.97 0-32.25 5.95-38.61 12.08-6.12 6.36-12.07 14.62-12.07 38.59v61.12c0 23.98 5.95 32.24 12.07 38.58zm117.7-61.77h-96c-4.08 0-7.38-3.31-7.38-7.38a7.39 7.39 0 0 1 7.38-7.38h96c4.08 0 7.38 3.31 7.38 7.38a7.39 7.39 0 0 1-7.38 7.38z"/><path d="m101.05,154.86c-4.08,0-7.38-3.31-7.38-7.38V51.47c0-4.08,3.31-7.38,7.38-7.38s7.38,3.31,7.38,7.38v96c0,4.08-3.31,7.38-7.38,7.38Z"/></svg>