<svg xmlns="http://www.w3.org/2000/svg" viewBox="0 0 200 200" xmlns:v="https://vecta.io/nano"><path d="M100 20.48l39.2.56c6.15.07 12.24 1.2 18.01 3.34 4.21 1.56 8.03 4.04 11.15 7.26a30.17 30.17 0 0 1 7.26 11.15c2.14 5.77 3.27 11.86 3.34 18.01.47 10.23.56 13.3.56 39.2l-.56 39.2c-.07 6.15-1.2 12.24-3.34 18.01-3.26 8.46-9.95 15.15-18.41 18.41-5.77 2.14-11.86 3.27-18.01 3.34-10.23.47-13.3.56-39.2.56s-28.97-.1-39.2-.56a53.59 53.59 0 0 1-18.02-3.34 30.17 30.17 0 0 1-11.15-7.26 30.17 30.17 0 0 1-7.26-11.15c-2.14-5.77-3.27-11.86-3.34-18.01-.47-10.23-.56-13.3-.56-39.2l.56-39.2c.07-6.15 1.2-12.24 3.34-18.01 1.56-4.21 4.04-8.03 7.26-11.15a30.17 30.17 0 0 1 11.15-7.26c5.77-2.14 11.86-3.27 18.01-3.34 10.23-.47 13.3-.56 39.2-.56m0-17.48c-26.34 0-29.65.11-39.99.58-8.05.16-16.01 1.68-23.54 4.51-6.48 2.44-12.34 6.26-17.19 11.2A47.64 47.64 0 0 0 8.08 36.47c-2.82 7.54-4.34 15.5-4.5 23.54-.49 10.34-.59 13.65-.59 39.99l.58 39.99c.16 8.05 1.68 16.01 4.51 23.54 2.44 6.48 6.26 12.34 11.2 17.19a47.64 47.64 0 0 0 17.18 11.19c7.54 2.82 15.5 4.34 23.54 4.5 10.34.49 13.65.59 39.99.59s29.65-.11 39.99-.58c8.05-.16 16.01-1.68 23.54-4.51a49.61 49.61 0 0 0 28.38-28.38c2.82-7.54 4.34-15.5 4.5-23.54.49-10.34.59-13.65.59-39.99l-.58-39.99c-.16-8.05-1.68-16.01-4.51-23.54-2.44-6.48-6.26-12.34-11.2-17.19a47.64 47.64 0 0 0-17.18-11.19c-7.54-2.82-15.5-4.34-23.54-4.5C129.64 3.1 126.33 3 99.99 3zm0 47.19c-27.51 0-49.81 22.3-49.81 49.81s22.3 49.81 49.81 49.81 49.81-22.3 49.81-49.81h0c0-27.51-22.3-49.81-49.81-49.81zm0 82.15c-17.86 0-32.34-14.48-32.34-32.34s14.48-32.34 32.34-32.34 32.34 14.48 32.34 32.34h0c0 17.86-14.48 32.34-32.34 32.34zm51.78-95.76a11.64 11.64 0 1 0 11.64 11.64h0a11.64 11.64 0 0 0-11.64-11.64z"/></svg>