<svg xmlns="http://www.w3.org/2000/svg" viewBox="0 0 200 200" xmlns:v="https://vecta.io/nano"><path d="M140.4 31.75c23.07 1.28 40.79 20.92 39.7 44 0 25.9-22.36 41.81-43.82 60.89L100 168.28c-4.02-2.61-18.07-15.37-36.28-31.64-21.55-19.16-43.82-35.22-43.82-60.89-1.1-23.08 16.63-42.72 39.7-44 12.49-.38 24.26 5.84 30.99 16.37 7.08 9.91 8.26 14.87 9.44 14.87s2.34-4.96 9.36-14.89a35.15 35.15 0 0 1 31.02-16.34m0-16.86c-15.51-.5-30.4 6.11-40.45 17.93C89.92 21.04 75.08 14.44 59.6 14.9 27.21 16.15 1.93 43.35 3.03 75.75c0 30.44 21.5 49.13 42.29 67.2l7.19 6.3 8.66 7.74c9.44 8.99 19.34 17.48 29.66 25.45 5.58 3.61 12.75 3.61 18.33 0 10.65-8.21 20.85-16.98 30.57-26.26l7.77-6.95 7.46-6.53c19.68-17.07 41.99-36.43 41.99-66.95 1.11-32.39-24.17-59.59-56.56-60.86z"/></svg>