<?xml version="1.0" encoding="UTF-8"?>
<svg id="Camada_1" data-name="Camada 1" xmlns="http://www.w3.org/2000/svg" viewBox="0 0 200 200">
  <path d="m157.18,130.47V30.71c0-15.31-12.41-27.71-27.71-27.71H30.71C15.41,3,3,15.41,3,30.71v99.77c0,15.31,12.41,27.71,27.71,27.71h99.35c14.89-.53,27.11-12.8,27.11-27.73Zm23.48-78.43v85.81c.35,23.98-19.37,43.7-43.36,43.84H51.5c-3.2-.14-4.8,3.59-2.66,5.72,5.33,5.86,12.79,9.59,21.85,9.59h71.42c30.38,0,54.9-24.52,54.9-54.9v-71.42c0-8.53-3.73-16.52-9.59-21.85-2.66-2.13-6.4,0-6.74,3.2Z"/>
</svg>