<?xml version="1.0" encoding="UTF-8"?>
<svg id="Camada_1" data-name="Camada 1" xmlns="http://www.w3.org/2000/svg" viewBox="0 0 200 200">
  <defs>
    <style>
      .cls-1 {
        fill: #fff;
      }

      .cls-2 {
        fill: #3897f0;
      }
    </style>
  </defs>
  <polygon class="cls-2" points="180.89 100.04 196 73.14 170.49 58.78 170.49 29.51 141.26 29.51 126.94 4 100.04 19.11 73.14 4 58.78 29.51 29.51 29.51 29.51 58.74 4 73.06 19.11 99.96 4 126.86 29.51 141.22 29.51 170.49 58.74 170.49 73.06 196 99.96 180.89 126.86 196 141.22 170.49 170.49 170.49 170.49 141.26 196 126.94 180.89 100.04"/>
  <polygon class="cls-1" points="144.99 76.35 131.88 64.15 89.95 109.22 67.3 88.15 55.1 101.26 90.86 134.52 90.94 134.4 90.98 134.4 144.99 76.35"/>
</svg>