<svg xmlns="http://www.w3.org/2000/svg" viewBox="0 0 200 200" xmlns:v="https://vecta.io/nano"><path d="M172.61 196H27.38c-13.04 0-23.64-10.61-23.64-23.64V47.68c0-13.04 10.61-23.65 23.66-23.65h46.69c1.74 0 3.38-.68 4.61-1.9L94.66 6.22c2.96-2.95 7.74-2.95 10.69 0l15.96 15.91a6.52 6.52 0 0 0 4.62 1.9h46.7c13.04 0 23.64 10.61 23.64 23.64v124.68c0 13.04-10.61 23.65-23.66 23.65zM27.39 39.17c-4.69 0-8.51 3.82-8.51 8.51v124.68a8.51 8.51 0 0 0 8.5 8.5h145.19c4.73 0 8.55-3.82 8.55-8.51V47.67a8.51 8.51 0 0 0-8.5-8.5h-46.7a21.51 21.51 0 0 1-15.3-6.32l-10.61-10.59L89.4 32.84c-4.09 4.07-9.52 6.31-15.3 6.32H27.39zm56.65-11.68h.01-.01z"/><path d="M159.49 196c-4.18 0-7.57-3.39-7.57-7.57v-5.08c0-15.09-12.31-27.36-27.44-27.37H78.69c-15.09 0-27.37 12.28-27.37 27.37v5.08c0 4.18-3.39 7.57-7.57 7.57s-7.57-3.39-7.57-7.57v-5.08c0-23.44 19.07-42.51 42.51-42.51h45.79c23.48 0 42.58 19.07 42.58 42.51v5.08c0 4.18-3.39 7.57-7.57 7.57zm-58.34-64.87c-21.52 0-39.03-17.51-39.03-39.03s17.51-39.03 39.03-39.03 39.03 17.51 39.03 39.03-17.51 39.03-39.03 39.03zm0-62.92c-13.17 0-23.89 10.72-23.89 23.89s10.72 23.89 23.89 23.89 23.89-10.72 23.89-23.89-10.72-23.89-23.89-23.89z"/></svg>