<svg xmlns="http://www.w3.org/2000/svg" viewBox="0 0 200 200" xmlns:v="https://vecta.io/nano"><path d="M48.75 196.96a14.8 14.8 0 0 1-5.38-1.02c-3.69-1.44-6.6-4.22-8.19-7.85a14.75 14.75 0 0 1-1.25-5.5l-.47-15.61c-19.69-17.8-30.77-43.16-30.45-69.66C2.75 45.63 44.56 3.35 96.26 3.04l3.69.05c25.07-.74 48.95 8.3 67.26 25.47 18.37 17.23 28.94 40.58 29.74 65.76.81 25.17-8.23 49.16-25.46 67.53s-40.58 28.94-65.76 29.74c-1.96.06-3.95.06-5.92 0-9.3.07-18.58-1.21-27.56-3.65l-17.53 7.74c-1.92.84-3.95 1.27-5.98 1.27zM96.77 18.39h-.43c-43.25.25-78.24 35.65-77.99 78.91v.07.07c-.28 22.17 9 43.4 25.48 58.23 2.96 2.63 4.78 6.46 4.94 10.46l.46 15.18 16.98-7.5a14.8 14.8 0 0 1 9.88-.74c7.67 2.1 15.59 3.16 23.54 3.16h.52c1.68.06 3.39.06 5.07 0 21.07-.68 40.62-9.52 55.05-24.9 14.42-15.38 22-35.46 21.32-56.53-.68-21.08-9.52-40.63-24.9-55.05s-35.46-22-56.53-21.32l-.15-4.72-.09 4.72-.09-5.26-.19 5.26-2.88-.05zM33.6 167.12z"/><path d="m151.57,83.49c1.75-2.74.94-6.38-1.8-8.12-2.1-1.34-4.82-1.21-6.79.33l-22.81,18.3c-2,1.51-4.76,1.52-6.77.02l-21.9-16.43c-6.22-4.66-15.03-3.39-19.69,2.83-.22.3-.43.6-.63.92l-22.91,35.52c-1.76,2.73-.97,6.37,1.76,8.13,2.11,1.36,4.84,1.23,6.81-.32l22.81-18.29c2-1.52,4.77-1.53,6.77-.02l21.88,16.42c6.22,4.66,15.03,3.4,19.69-2.82.23-.3.44-.61.64-.93l22.92-35.54Z" fill-rule="evenodd"/></svg>