<?xml version="1.0" encoding="UTF-8"?>
<svg id="Camada_1" data-name="Camada 1" xmlns="http://www.w3.org/2000/svg" viewBox="0 0 200 200">
  <path d="m125.06,103.06c1.98.3,3.96.45,5.94.45,9.13,0,17.98-3.22,24.94-9.19,6.67-5.72,11.1-13.48,12.68-21.96h.66v-7.04c0-21.06-17.14-38.2-38.21-38.2-11.16,0-21.73,4.86-29,13.34-7.27,8.47-10.45,19.72-8.74,30.88,2.49,16.19,15.53,29.23,31.72,31.72Zm-12.31-53.44c4.59-5.36,11.27-8.43,18.33-8.43,13.08,0,23.77,10.47,24.12,23.47v.66c0,7.05-3.07,13.72-8.43,18.32-5.43,4.66-12.38,6.61-19.58,5.51-10.18-1.57-18.39-9.77-19.95-19.95-1.11-7.2.85-14.15,5.51-19.58Z"/>
  <path d="m152.96,118.6h-43.61c-23.72,0-43.02,19.26-43.03,42.93v4.31c0,3.89,3.15,7.04,7.04,7.04s7.04-3.15,7.04-7.04v-4.31c0-15.91,12.99-28.86,28.96-28.86h43.61c15.97,0,28.96,12.95,28.96,28.86v4.31c0,3.89,3.15,7.04,7.04,7.04s7.04-3.15,7.04-7.04v-4.31c0-23.67-19.31-42.93-43.04-42.93Z"/>
  <path d="m71.35,89.45c0-3.89-3.15-7.04-7.04-7.04h-19.1v-19.1c0-3.89-3.15-7.04-7.04-7.04s-7.04,3.15-7.04,7.04v19.1H11.04c-3.89,0-7.04,3.15-7.04,7.04s3.15,7.04,7.04,7.04h20.1v20.1c0,3.89,3.15,7.04,7.04,7.04s7.04-3.15,7.04-7.04v-20.1h19.1c3.89,0,7.04-3.15,7.04-7.04Z"/>
</svg>