<svg xmlns="http://www.w3.org/2000/svg" viewBox="0 0 200 200" fill-rule="evenodd" xmlns:v="https://vecta.io/nano"><path d="M179.68 20.51l-.18-.18C169.35 10.53 157.14 4 130.52 4H69.5c-26.62 0-38.84 6.53-48.98 16.33l-.18.18C10.53 30.64 4 42.84 4 69.48v61.03c0 26.64 6.53 38.84 16.32 48.97l.18.18c10.15 9.8 22.36 16.33 48.98 16.33h61.02c26.62 0 38.84-6.53 48.98-16.33l.18-.18c9.8-10.13 16.32-22.33 16.32-48.97V69.48c0-26.64-6.53-38.84-16.32-48.97zm-10.71 10.53c3.73 3.87 7.4 8.47 9.68 16.94h-35.63l-18.09-28.96h5.58c23.89 0 32.13 5.93 38.46 12.02zm-61.34-12.02l18.09 28.96H86.59L68.51 19.03h.98 38.14zm-55.55 1.4l17.21 27.56H21.35c2.28-8.47 5.95-13.07 9.68-16.94 4.46-4.3 9.88-8.51 21.06-10.62zm128.9 110.1c0 23.9-5.92 32.12-12.01 38.44-6.33 6.1-14.57 12.02-38.46 12.02H69.49c-23.89 0-32.13-5.93-38.46-12.02-6.09-6.32-12.01-14.54-12.01-38.44V69.49a131.34 131.34 0 0 1 .16-6.49h161.64c.11 2.03.16 4.18.16 6.49v61.03zm-51.9-18.06L88.75 89.18c-1.23-.71-2.63-1.08-4.05-1.08-4.45 0-8.06 3.62-7.77 8.07v46.56c-.29 2.88 1.25 5.54 4.29 6.98h0c1.95 1.45 5.03 1.45 7.52 0l40.33-23.28a8.08 8.08 0 0 0 2.96-2.96c2.22-3.86.9-8.79-2.96-11.02z"/></svg>