<svg xmlns="http://www.w3.org/2000/svg" viewBox="0 0 200 200" xmlns:v="https://vecta.io/nano"><path d="M189.74 196.86h-62.25a7.26 7.26 0 0 1-7.26-7.26v-48.87c0-10.81-8.84-19.59-19.71-19.59h0c-10.87 0-19.71 8.79-19.71 19.59v48.87a7.26 7.26 0 0 1-7.26 7.26H10.26A7.26 7.26 0 0 1 3 189.6V95.91c0-1.99.81-3.89 2.25-5.26l89.74-85.5a7.27 7.27 0 0 1 10.02 0l89.74 85.5c1.44 1.37 2.25 3.27 2.25 5.26v93.69a7.26 7.26 0 0 1-7.26 7.26zm-54.98-14.52h47.72V99.02L100 20.43 17.52 99.02v83.32h48.76v-41.61c0-18.81 15.36-34.11 34.23-34.11h.01c18.87 0 34.22 15.3 34.23 34.1v41.62z"/></svg>