<?xml version="1.0" encoding="UTF-8"?>
<svg id="Camada_1" data-name="Camada 1" xmlns="http://www.w3.org/2000/svg" viewBox="0 0 200 200">
  <path d="m135.49,54.99l-54.91,21.33c-1.92.75-3.44,2.27-4.19,4.19l-21.4,54.97c-1.06,2.72-.41,5.8,1.65,7.87,1.41,1.41,3.29,2.16,5.2,2.16.89,0,1.8-.16,2.66-.5l54.91-21.33c1.92-.75,3.44-2.27,4.19-4.19l21.4-54.97c1.06-2.72.41-5.8-1.65-7.87-2.06-2.06-5.15-2.71-7.86-1.66Zm-24.38,56.05l-22.18-22.18,36.31-14.11-14.13,36.29Z"/>
  <path d="m100,2C45.96,2,2,45.96,2,100s43.96,98,98,98,98-43.96,98-98S154.04,2,100,2Zm0,181.29c-45.93,0-83.29-37.36-83.29-83.29S54.07,16.71,100,16.71s83.29,37.36,83.29,83.29-37.36,83.29-83.29,83.29Z"/>
</svg>