<?xml version="1.0" encoding="UTF-8"?>
<svg id="Camada_1" data-name="Camada 1" xmlns="http://www.w3.org/2000/svg" viewBox="0 0 200 200">
  <path d="m194.79,184.15l-44.06-44.06c12.12-14.51,19.43-33.16,19.43-53.5,0-46.09-37.49-83.58-83.58-83.58S3,40.49,3,86.58s37.49,83.58,83.58,83.58c20.34,0,38.99-7.31,53.5-19.43l44.06,44.06c1.47,1.47,3.4,2.21,5.32,2.21s3.85-.74,5.32-2.21c2.94-2.94,2.94-7.71,0-10.65ZM18.06,86.58c0-37.78,30.74-68.52,68.52-68.52s68.52,30.74,68.52,68.52-30.74,68.52-68.52,68.52S18.06,124.36,18.06,86.58Z"/>
</svg>